<svg xmlns="http://www.w3.org/2000/svg" width="18.272" height="18.272" viewBox="0 0 18.272 18.272">
  <path id="Icon_awesome-history" data-name="Icon awesome-history" d="M18.834,9.681a9.136,9.136,0,0,1-14.869,7.13A.884.884,0,0,1,3.9,15.5l.415-.415a.886.886,0,0,1,1.175-.073A6.779,6.779,0,1,0,5.054,4.76l1.87,1.87a.589.589,0,0,1-.417,1.006H1.152a.589.589,0,0,1-.589-.589V1.691a.589.589,0,0,1,1.006-.417L3.387,3.093A9.136,9.136,0,0,1,18.834,9.681Zm-6.664,2.9.362-.465a.884.884,0,0,0-.155-1.241l-1.5-1.166V5.867a.884.884,0,0,0-.884-.884H9.4a.884.884,0,0,0-.884.884v5l2.41,1.874A.884.884,0,0,0,12.17,12.583Z" transform="translate(-0.563 -0.563)"/>
</svg>
