<svg xmlns="http://www.w3.org/2000/svg" width="15.175" height="15.175" viewBox="0 0 15.175 15.175">
  <path id="Icon_awesome-border-style" data-name="Icon awesome-border-style" d="M8.13,15.257H7.046A.542.542,0,0,0,6.5,15.8v1.084a.542.542,0,0,0,.542.542H8.13a.542.542,0,0,0,.542-.542V15.8A.542.542,0,0,0,8.13,15.257Zm-3.252,0H3.794a.542.542,0,0,0-.542.542v1.084a.542.542,0,0,0,.542.542H4.878a.542.542,0,0,0,.542-.542V15.8A.542.542,0,0,0,4.878,15.257Zm6.5,0H10.3a.542.542,0,0,0-.542.542v1.084a.542.542,0,0,0,.542.542h1.084a.542.542,0,0,0,.542-.542V15.8A.542.542,0,0,0,11.381,15.257Zm3.252-6.5H13.549a.542.542,0,0,0-.542.542V10.38a.542.542,0,0,0,.542.542h1.084a.542.542,0,0,0,.542-.542V9.3A.542.542,0,0,0,14.633,8.754Zm0,3.252H13.549a.542.542,0,0,0-.542.542v1.084a.542.542,0,0,0,.542.542h1.084a.542.542,0,0,0,.542-.542V12.547A.542.542,0,0,0,14.633,12.006Zm0,3.252H13.549a.542.542,0,0,0-.542.542v1.084a.542.542,0,0,0,.542.542h1.084a.542.542,0,0,0,.542-.542V15.8A.542.542,0,0,0,14.633,15.257Zm0-9.756H13.549a.542.542,0,0,0-.542.542V7.128a.542.542,0,0,0,.542.542h1.084a.542.542,0,0,0,.542-.542V6.044A.542.542,0,0,0,14.633,5.5Zm0-3.252H1.084A1.084,1.084,0,0,0,0,3.334V16.883a.542.542,0,0,0,.542.542H1.626a.542.542,0,0,0,.542-.542V4.418H14.633a.542.542,0,0,0,.542-.542V2.792A.542.542,0,0,0,14.633,2.25Z" transform="translate(0 -2.25)"/>
</svg>
