<svg xmlns="http://www.w3.org/2000/svg" width="20.461" height="15.591" viewBox="0 0 20.461 15.591">
  <path id="Icon_awesome-car" data-name="Icon awesome-car" d="M19,8.756H16.723l-.632-1.581A4.234,4.234,0,0,0,12.14,4.5H7.314A4.235,4.235,0,0,0,3.363,7.175L2.731,8.756H.456a.456.456,0,0,0-.442.567l.228.912a.456.456,0,0,0,.442.345h.763A2.415,2.415,0,0,0,.608,12.4v1.824a2.412,2.412,0,0,0,.608,1.593v2.054a1.216,1.216,0,0,0,1.216,1.216H3.648a1.216,1.216,0,0,0,1.216-1.216V16.659h9.727v1.216a1.216,1.216,0,0,0,1.216,1.216h1.216a1.216,1.216,0,0,0,1.216-1.216V15.82a2.41,2.41,0,0,0,.608-1.593V12.4a2.416,2.416,0,0,0-.839-1.824h.763a.456.456,0,0,0,.442-.345l.228-.912A.456.456,0,0,0,19,8.756ZM5.621,8.078A1.824,1.824,0,0,1,7.314,6.932H12.14a1.824,1.824,0,0,1,1.693,1.146l.757,1.893H4.864l.757-1.893ZM3.648,14.219a1.147,1.147,0,0,1-1.216-1.212A1.147,1.147,0,0,1,3.648,11.8a2.339,2.339,0,0,1,1.824,1.818C5.472,14.341,4.377,14.219,3.648,14.219Zm12.159,0c-.73,0-1.824.121-1.824-.606A2.339,2.339,0,0,1,15.807,11.8a1.147,1.147,0,0,1,1.216,1.212,1.147,1.147,0,0,1-1.216,1.212Z" transform="translate(0.503 -4)" fill="none" stroke="#000" stroke-width="1"/>
</svg>
