<svg id="distance" xmlns="http://www.w3.org/2000/svg" width="17.25" height="17.25" viewBox="0 0 17.25 17.25">
  <g id="Group_2780" data-name="Group 2780">
    <g id="Group_2779" data-name="Group 2779">
      <path id="Path_2184" data-name="Path 2184" d="M344.209,0a2.878,2.878,0,0,0-2.875,2.875c0,1.375,2.037,4.158,2.515,4.792,0,.2,0,.406,0,.59a.36.36,0,0,0,.35.369h.01a.36.36,0,0,0,.359-.35c0-.189,0-.4,0-.606.474-.629,2.517-3.418,2.517-4.794A2.878,2.878,0,0,0,344.209,0Zm0,6.945c-.79-1.087-2.156-3.155-2.156-4.07a2.156,2.156,0,1,1,4.313,0C346.365,3.79,345,5.858,344.209,6.945Z" transform="translate(-329.834)"/>
      <path id="Path_2185" data-name="Path 2185" d="M406.053,64a.719.719,0,1,0,.719.719A.72.72,0,0,0,406.053,64Z" transform="translate(-391.678 -61.844)"/>
      <path id="Path_2186" data-name="Path 2186" d="M66.156,234.667a2.156,2.156,0,1,0,2.156,2.156A2.159,2.159,0,0,0,66.156,234.667Zm0,3.594a1.437,1.437,0,1,1,1.438-1.437A1.439,1.439,0,0,1,66.156,238.261Z" transform="translate(-61.844 -226.761)"/>
      <path id="Path_2187" data-name="Path 2187" d="M256.535,383.731a.359.359,0,0,0-.465.205,8.4,8.4,0,0,1-.634,1.346.359.359,0,0,0,.613.375,9.1,9.1,0,0,0,.691-1.461A.36.36,0,0,0,256.535,383.731Z" transform="translate(-246.779 -370.779)"/>
      <path id="Path_2188" data-name="Path 2188" d="M186.41,460.046a3.935,3.935,0,0,1-1.251.657.359.359,0,0,0,.222.684,4.7,4.7,0,0,0,1.475-.777.359.359,0,1,0-.446-.564Z" transform="translate(-178.681 -444.471)"/>
      <path id="Path_2189" data-name="Path 2189" d="M293.381,306.071a2.919,2.919,0,0,0-1.119,1.331.359.359,0,1,0,.648.311,2.147,2.147,0,0,1,.826-1.017.359.359,0,1,0-.355-.625Z" transform="translate(-282.381 -295.713)"/>
      <path id="Path_2190" data-name="Path 2190" d="M367.665,279.258a.36.36,0,0,0-.5.1c-.118.175-.36.415-1.093.481a.359.359,0,0,0,.032.717h.033a2.038,2.038,0,0,0,1.624-.794A.359.359,0,0,0,367.665,279.258Z" transform="translate(-353.423 -269.79)"/>
      <path id="Path_2191" data-name="Path 2191" d="M5.164,181.453c1.134-1.209,3.461-3.991,3.461-6.473a4.267,4.267,0,0,0-4.313-4.312A4.267,4.267,0,0,0,0,174.98c0,3.209,3.9,6.932,4.066,7.089a.357.357,0,0,0,.247.1q.393,0,.746-.027a.359.359,0,0,0,.331-.385A.353.353,0,0,0,5.164,181.453Zm-.852-.152c-.849-.866-3.594-3.858-3.594-6.321a3.556,3.556,0,0,1,3.594-3.594,3.556,3.556,0,0,1,3.594,3.594C7.906,177.443,5.161,180.435,4.313,181.3Z" transform="translate(0 -164.917)"/>
    </g>
  </g>
</svg>
