<svg xmlns="http://www.w3.org/2000/svg" width="20.376" height="20.376" viewBox="0 0 20.376 20.376">
  <defs>
    <style>
      .cls-1 {
        fill: none;
        stroke: #000;
      }
    </style>
  </defs>
  <path id="Icon_awesome-gas-pump" data-name="Icon awesome-gas-pump" class="cls-1" d="M12.715,16.954H.605A.607.607,0,0,0,0,17.559V18.77a.607.607,0,0,0,.605.605h12.11a.607.607,0,0,0,.605-.605V17.559A.607.607,0,0,0,12.715,16.954ZM18.664,4.061,15.6,1a.608.608,0,0,0-.855,0l-.428.428a.608.608,0,0,0,0,.855L15.743,3.7v2.35a2.116,2.116,0,0,0,1.816,2.089v6.085a.908.908,0,0,1-1.816,0V13.018a3.33,3.33,0,0,0-3.33-3.33h-.3V2.422A2.424,2.424,0,0,0,9.688,0H3.633A2.424,2.424,0,0,0,1.211,2.422V15.743h10.9V11.5h.3a1.513,1.513,0,0,1,1.514,1.514V14.07a2.838,2.838,0,0,0,2.441,2.872,2.732,2.732,0,0,0,3.009-2.713V5.775a2.426,2.426,0,0,0-.711-1.714ZM9.688,7.266H3.633V2.422H9.688Z" transform="translate(0.5 0.5)"/>
</svg>
