<svg xmlns="http://www.w3.org/2000/svg" width="20.448" height="20.448" viewBox="0 0 20.448 20.448">
  <g id="Group_2884" data-name="Group 2884" transform="translate(-89.682)">
    <g id="smartphone" transform="translate(89.682)">
      <g id="Group_2247" data-name="Group 2247">
        <g id="Group_2246" data-name="Group 2246">
          <g id="Group_2881" data-name="Group 2881">
            <path id="Path_1875" data-name="Path 1875" d="M8.946,0H2.982A2.985,2.985,0,0,0,0,2.982V17.466a2.985,2.985,0,0,0,2.982,2.982h.852a.426.426,0,1,0,0-.852H2.982a2.133,2.133,0,0,1-2.13-2.13V2.982A2.133,2.133,0,0,1,2.982.852H8.946a2.133,2.133,0,0,1,2.13,2.13v4.26a.426.426,0,1,0,.852,0V2.982A2.985,2.985,0,0,0,8.946,0Z"/>
          </g>
        </g>
      </g>
      <g id="Group_2249" data-name="Group 2249" transform="translate(0 3.408)">
        <g id="Group_2248" data-name="Group 2248">
          <path id="Path_1876" data-name="Path 1876" d="M11.5,85.333H.426a.426.426,0,0,0,0,.852H11.5a.426.426,0,0,0,0-.852Z" transform="translate(0 -85.333)"/>
        </g>
      </g>
      <g id="Group_2251" data-name="Group 2251" transform="translate(0 15.336)">
        <g id="Group_2250" data-name="Group 2250">
          <path id="Path_1877" data-name="Path 1877" d="M7.668,384H.426a.426.426,0,1,0,0,.852H7.668a.426.426,0,1,0,0-.852Z" transform="translate(0 -384)"/>
        </g>
      </g>
      <g id="Group_2253" data-name="Group 2253" transform="translate(4.26 1.704)">
        <g id="Group_2252" data-name="Group 2252">
          <path id="Path_1878" data-name="Path 1878" d="M109.648,42.667h-2.556a.426.426,0,1,0,0,.852h2.556a.426.426,0,1,0,0-.852Z" transform="translate(-106.666 -42.667)"/>
        </g>
      </g>
      <g id="Group_2255" data-name="Group 2255" transform="translate(8.533 1.704)">
        <g id="Group_2254" data-name="Group 2254">
          <path id="Path_1879" data-name="Path 1879" d="M214.084,42.667h-.008a.423.423,0,0,0-.422.426.428.428,0,1,0,.43-.426Z" transform="translate(-213.654 -42.667)"/>
        </g>
      </g>
      <g id="Group_2883" data-name="Group 2883">
        <g id="Group_2257" data-name="Group 2257" transform="translate(3.907 7.281)">
          <g id="Group_2256" data-name="Group 2256">
            <path id="Path_1880" data-name="Path 1880" d="M113.142,186.3l-3.2-3.52a1.631,1.631,0,0,0-2.306.005,1.6,1.6,0,0,0-.412.7,1.632,1.632,0,0,0-2.557.851,1.633,1.633,0,0,0-2.552.836l-1.51-1.51A1.631,1.631,0,0,0,98.3,185.97l5.8,5.8-3.44.54a1.908,1.908,0,0,0-1.631,1.88,1.28,1.28,0,0,0,1.278,1.278h8.033a4.655,4.655,0,0,0,3.313-1.373l1.34-1.34a4.68,4.68,0,0,0,.153-6.459Zm-.755,5.857-1.34,1.34a3.809,3.809,0,0,1-2.711,1.123H100.3a.426.426,0,0,1-.426-.426,1.056,1.056,0,0,1,.9-1.039l4.273-.671a.426.426,0,0,0,.235-.722L98.9,185.367a.779.779,0,0,1,1.1-1.1l4.262,4.262a.426.426,0,0,0,.6-.6l-1.741-1.741a.779.779,0,0,1,1.1-1.1l1.741,1.741a.426.426,0,0,0,.727-.3.422.422,0,0,0-.121-.3l-.889-.889a.779.779,0,0,1,1.1-1.1l.889.889h.005a.426.426,0,0,0,.594-.611l-.037-.037a.779.779,0,0,1,1.087-1.116l3.19,3.506a3.829,3.829,0,0,1-.125,5.283Z" transform="translate(-97.819 -182.302)"/>
          </g>
        </g>
      </g>
    </g>
  </g>
</svg>
