<svg xmlns="http://www.w3.org/2000/svg" width="19" height="19.012" viewBox="0 0 19 19.012">
  <path id="Icon_awesome-layer-group" data-name="Icon awesome-layer-group" d="M.436,5.2,8.625,8.918a.9.9,0,0,0,.748,0L17.563,5.2a.785.785,0,0,0,0-1.407L9.374.081a.9.9,0,0,0-.748,0L.436,3.8a.786.786,0,0,0,0,1.408Zm17.127,3.1-2.042-.926L9.839,9.957a2.026,2.026,0,0,1-1.678,0L2.479,7.381.436,8.307a.785.785,0,0,0,0,1.406l8.189,3.712a.9.9,0,0,0,.748,0l8.19-3.712a.785.785,0,0,0,0-1.406Zm0,4.493-2.034-.922-5.69,2.579a2.026,2.026,0,0,1-1.678,0l-5.69-2.579L.436,12.8a.785.785,0,0,0,0,1.406l8.189,3.712a.9.9,0,0,0,.748,0l8.19-3.712a.785.785,0,0,0,0-1.406Z" transform="translate(0.5 0.507)" fill="none" stroke="#000" stroke-width="1"/>
</svg>
