<svg xmlns="http://www.w3.org/2000/svg" width="10.297" height="8.897" viewBox="0 0 10.297 8.897">
  <path id="Icon_ionic-ios-speedometer" data-name="Icon ionic-ios-speedometer" d="M7.148,4.5a4.9,4.9,0,0,0-3.667,8.143c.024.026.046.052.07.077a.551.551,0,0,0,.811,0,3.786,3.786,0,0,1,5.572,0,.551.551,0,0,0,.811,0l.07-.077A4.9,4.9,0,0,0,7.148,4.5Zm-.306,1a.306.306,0,0,1,.612,0v.787a.306.306,0,0,1-.612,0Zm-2.8,4.2H3.256a.306.306,0,1,1,0-.612h.787a.306.306,0,1,1,0,.612ZM5.169,7.417h0a.309.309,0,0,1-.433,0l-.558-.555a.309.309,0,0,1,0-.433h0a.309.309,0,0,1,.433,0l.558.558A.306.306,0,0,1,5.169,7.417Zm3.512.754L7.643,9.823a.678.678,0,0,1-.153.153A.658.658,0,1,1,6.724,8.9L8.375,7.865a.224.224,0,0,1,.256,0A.22.22,0,0,1,8.681,8.172Zm.879-.754a.309.309,0,0,1-.433,0h0a.309.309,0,0,1,0-.433l.558-.558a.309.309,0,0,1,.433,0h0a.309.309,0,0,1,0,.433ZM11.041,9.7h-.787a.306.306,0,1,1,0-.612h.787a.306.306,0,1,1,0,.612Z" transform="translate(-2 -4.25)" fill="none" stroke="#537895" stroke-width="0.5"/>
</svg>
