<svg id="Icon_ionic-md-speedometer" data-name="Icon ionic-md-speedometer" xmlns="http://www.w3.org/2000/svg" width="19.125" height="19.125" viewBox="0 0 19.125 19.125">
  <path id="Path_1822" data-name="Path 1822" d="M9,29.25H20.769v2.207H9Z" transform="translate(-5.322 -12.332)" fill="#ffc63d"/>
  <path id="Path_1823" data-name="Path 1823" d="M16.065,17.536a1.471,1.471,0,1,0-.4-2.887L12.594,12.41l-.184.161,2.248,3.066a1.435,1.435,0,0,0-.064.428A1.47,1.47,0,0,0,16.065,17.536Z" transform="translate(-6.503 -6.503)" fill="#ffc63d"/>
  <path id="Path_1824" data-name="Path 1824" d="M12.938,3.375A9.56,9.56,0,0,0,5.4,18.822h2.7l.184-.184,1.016-1.016L8.253,16.569,7.237,17.581a7.328,7.328,0,0,1-1.618-3.908H7.053V12.2H5.619A7.328,7.328,0,0,1,7.237,8.294L8.253,9.306,9.306,8.253,8.294,7.237A7.328,7.328,0,0,1,12.2,5.619V7.053h1.471V5.619a7.328,7.328,0,0,1,3.908,1.618L16.569,8.253l1.053,1.053,1.016-1.011A7.328,7.328,0,0,1,20.256,12.2H18.822v1.471h1.434a7.328,7.328,0,0,1-1.618,3.908l-1.016-1.011-1.053,1.053,1.016,1.016.184.184h2.7A9.56,9.56,0,0,0,12.938,3.375Z" transform="translate(-3.375 -3.375)" fill="#ffc63d"/>
</svg>
