<svg xmlns="http://www.w3.org/2000/svg" width="22.565" height="22.565" viewBox="0 0 22.565 22.565">
  <path id="Icon_awesome-gas-pump" data-name="Icon awesome-gas-pump" d="M14.152,18.869H.674A.676.676,0,0,0,0,19.543v1.348a.676.676,0,0,0,.674.674H14.152a.676.676,0,0,0,.674-.674V19.543A.676.676,0,0,0,14.152,18.869Zm6.621-14.35L17.361,1.108a.676.676,0,0,0-.952,0l-.476.476a.676.676,0,0,0,0,.952l1.588,1.588V6.739a2.355,2.355,0,0,0,2.022,2.325v6.773a1.011,1.011,0,1,1-2.022,0V14.489a3.707,3.707,0,0,0-3.706-3.706h-.337V2.7a2.7,2.7,0,0,0-2.7-2.7H4.043a2.7,2.7,0,0,0-2.7,2.7V17.521h12.13V12.8h.337A1.684,1.684,0,0,1,15.5,14.489V15.66a3.158,3.158,0,0,0,2.717,3.2,3.041,3.041,0,0,0,3.348-3.02V6.427a2.7,2.7,0,0,0-.792-1.908ZM10.782,8.087H4.043V2.7h6.739Z" transform="translate(0.5 0.5)" fill="none" stroke="#537895" stroke-width="1"/>
</svg>
