<svg xmlns="http://www.w3.org/2000/svg" width="20.127" height="19" viewBox="0 0 20.127 19">
  <path id="Icon_awesome-chart-pie" data-name="Icon awesome-chart-pie" d="M18.555,10.125H10.213l5.556,5.556a.564.564,0,0,0,.78.024,8.42,8.42,0,0,0,2.571-4.952.564.564,0,0,0-.565-.628ZM18,7.847A8.458,8.458,0,0,0,10.153,0a.566.566,0,0,0-.591.57V8.438h7.867A.565.565,0,0,0,18,7.847ZM7.875,10.125V1.783a.563.563,0,0,0-.627-.565A8.431,8.431,0,0,0,0,9.857,8.542,8.542,0,0,0,8.544,18,8.372,8.372,0,0,0,13.3,16.452a.559.559,0,0,0,.055-.847Z" transform="translate(0.501 0.5)" fill="none" stroke="#000" stroke-width="1"/>
</svg>
