<svg xmlns="http://www.w3.org/2000/svg" width="11.897" height="6.321" viewBox="0 0 11.897 6.321">
  <path id="Icon_simple-coursera" data-name="Icon simple-coursera" d="M11.392,11.624q0-.066-.009-.132h0a2.839,2.839,0,0,0-.47-1.336A2.952,2.952,0,0,0,10.5,9.66a2.986,2.986,0,0,0-.779-.537,3.331,3.331,0,0,0-1.449-.317,3.49,3.49,0,0,0-1.209.211A3,3,0,0,0,6.2,9.49q-.081.066-.158.138L6,9.668l-.056.059h0l-.027.026-.012.013-.067.07c-.049.056-.1.111-.141.166h0a2.823,2.823,0,0,0-.237.329c-.042.066-.084.134-.123.2l-.545,1.1h0l-.028.056-.06.122a4.937,4.937,0,0,1-.39.681,1.461,1.461,0,0,1-1.142.521c-.032,0-.066,0-.1,0a1.513,1.513,0,0,1-.731-.2,1.223,1.223,0,0,1-.472-.489,1.263,1.263,0,0,1-.155-.65v-.016a1.172,1.172,0,0,1,.429-.884,1.423,1.423,0,0,1,.212-.152L2.39,10.6A1.448,1.448,0,0,1,3.1,10.43l.084,0a1.446,1.446,0,0,1,1.019.41l.823-1.478a3.25,3.25,0,0,0-.664-.337l-.028-.01-.088-.031a3.526,3.526,0,0,0-.815-.165l-.022,0c-.043,0-.087-.008-.131-.009l-.141,0H3.108a3.326,3.326,0,0,0-1.438.318A2.933,2.933,0,0,0,.482,10.152,2.852,2.852,0,0,0,0,11.757,2.687,2.687,0,0,0,.808,13.7a3.106,3.106,0,0,0,2.169.922c.056,0,.112,0,.168,0a3.442,3.442,0,0,0,1.367-.265,3.151,3.151,0,0,0,.3-.153c.056-.032.108-.066.16-.1l.038-.026.065-.044a2.612,2.612,0,0,0,.222-.181l.025-.024c.042-.039.084-.08.123-.121l.148-.167.056-.07.027-.038L5.7,13.4c.219-.368.933-1.71.933-1.71v0L6.68,11.6l.035-.064A4.792,4.792,0,0,1,7,11.068l0,0a1.5,1.5,0,0,1,1.114-.623,1.387,1.387,0,0,1,1.561,1.17,1.376,1.376,0,0,1-1.329,1.42,1.623,1.623,0,0,1-.48-.03h0a2.226,2.226,0,0,1-1.141-.74l-.768,1.412a4.588,4.588,0,0,0,.4.36,3.089,3.089,0,0,0,.544.311,3.4,3.4,0,0,0,1.348.28c.057,0,.046,0,.105,0a3.257,3.257,0,0,0,2.22-.947,2.661,2.661,0,0,0,.825-1.908v-.022l-.005-.122Z" transform="translate(0.25 -8.555)" fill="none" stroke="#919191" stroke-width="0.5"/>
</svg>
