<svg xmlns="http://www.w3.org/2000/svg" width="16.287" height="19.248" viewBox="0 0 16.287 19.248">
  <path id="Icon_ionic-md-notifications-outline" data-name="Icon ionic-md-notifications-outline" d="M13.815,6.728a6.689,6.689,0,0,1,1.106.207,4.715,4.715,0,0,1,3.594,4.62v5.9l.431.433.36.362H8.23l.36-.362.431-.433v-5.9a4.715,4.715,0,0,1,3.594-4.62,8.191,8.191,0,0,1,1.106-.207m.046-3.353a1.415,1.415,0,0,0-1.437,1.444v.674a6.238,6.238,0,0,0-4.79,6.063v5.293L5.625,18.774v.962H21.912v-.962L20,16.849V11.555a6.238,6.238,0,0,0-4.79-6.063V4.819a1.415,1.415,0,0,0-1.437-1.444ZM15.685,20.7H11.852a1.916,1.916,0,1,0,3.832,0Z" transform="translate(-5.625 -3.375)"/>
</svg>
