<svg xmlns="http://www.w3.org/2000/svg" width="18.803" height="18.44" viewBox="0 0 18.803 18.44">
  <g id="location-pointer" transform="translate(0.5 0.5)">
    <g id="Group_2235" data-name="Group 2235">
      <path id="Path_1858" data-name="Path 1858" d="M13,28.312q-.416.671-.909,1.4c2.761.413,4.174,1.3,4.174,1.737,0,.586-2.5,1.959-7.362,1.959s-7.362-1.373-7.362-1.959c0-.44,1.413-1.324,4.175-1.737q-.493-.728-.909-1.4C2.08,28.826,0,29.882,0,31.448c0,2.3,4.478,3.5,8.9,3.5s8.9-1.2,8.9-3.5C17.8,29.882,15.723,28.826,13,28.312Z" transform="translate(0 -17.508)" fill="none" stroke="#000" stroke-width="1"/>
      <g id="Group_2234" data-name="Group 2234" transform="translate(3.696)">
        <path id="Path_1859" data-name="Path 1859" d="M14.75.468A5.225,5.225,0,0,0,9.524,5.693c0,2.07,2.688,6.031,4.208,8.105a1.26,1.26,0,0,0,2.034,0c1.52-2.074,4.209-6.035,4.209-8.105A5.225,5.225,0,0,0,14.75.468Zm0,8.469a3.092,3.092,0,1,1,3.092-3.092A3.1,3.1,0,0,1,14.75,8.937Z" transform="translate(-9.524 -0.468)" fill="none" stroke="#000" stroke-width="1"/>
        <path id="Path_1860" data-name="Path 1860" d="M20.025,9.479a1.881,1.881,0,1,0,1.881,1.881A1.883,1.883,0,0,0,20.025,9.479Z" transform="translate(-14.799 -5.982)" fill="none" stroke="#000" stroke-width="1"/>
      </g>
    </g>
  </g>
</svg>
