<svg xmlns="http://www.w3.org/2000/svg" width="21.129" height="22.138" viewBox="0 0 21.129 22.138">
  <path id="Path_1861" data-name="Path 1861" d="M32.472,1.078H28.061V.324A.324.324,0,0,0,27.737,0H16.572a.324.324,0,0,0-.324.324v.753H11.991a.328.328,0,0,0-.324.324V9.911a.324.324,0,0,0,.324.324h4.256V12.6a.324.324,0,0,0,.324.324h.99a1.161,1.161,0,0,0-.123.4l-.426,3.692a2.579,2.579,0,0,0-.017.312,2.689,2.689,0,0,0,1.036,2.045l1.08.929v1.505a.324.324,0,0,0,.324.324h1a.324.324,0,0,0,0-.649H19.76V20.16a.324.324,0,0,0-.113-.246L18.582,19a2.213,2.213,0,0,1-.938-1.668,1.925,1.925,0,0,1,.013-.233l.426-3.692a.515.515,0,0,1,.512-.456.537.537,0,0,1,.386.175.525.525,0,0,1,.129.34V16.2a.324.324,0,0,0,.649,0V7.41a.515.515,0,0,1,1.031,0v0s0,0,0,.005v4.1a.328.328,0,1,0,.651,0c0-.07,0-.278,0-.331.058-.66,1.164-.644,1.164.034v.491a.324.324,0,0,0,.649,0,.517.517,0,0,1,.516-.516c.322,0,.649.14.649.516v.319a.325.325,0,0,0,.649.006.465.465,0,0,1,.017-.133.528.528,0,0,1,1.014,0l.4,1.541a6.527,6.527,0,0,1-.034,3.4l-.907,3.229a.323.323,0,0,0-.012.088v1.33H21.986a.324.324,0,0,0,0,.649h3.885a.324.324,0,0,0,.324-.324V20.2l.895-3.186a7.176,7.176,0,0,0,.037-3.738l-.092-.353h.7a.324.324,0,0,0,.324-.324V3.041h4.086V9.587H29.262a.324.324,0,0,0,0,.649h3.21a.324.324,0,0,0,.324-.324V1.4h0a.324.324,0,0,0-.324-.324Zm-20.156.649h3.932v.667H12.316ZM16.9.649H27.413V2.393H16.9ZM12.316,9.587V3.041h3.932V9.587Zm14.551,2.692-.14-.539a1.186,1.186,0,0,0-1.834-.644,1.3,1.3,0,0,0-1.745-.366,1.283,1.283,0,0,0-1.708-.55V7.734h2.95a.315.315,0,0,1,.314.314v.623a.314.314,0,0,1-.314.314H22.614a.324.324,0,0,0,0,.649h1.775a.964.964,0,0,0,.963-.962V8.049a.964.964,0,0,0-.963-.963h-3a1.164,1.164,0,0,0-2.282.324v4.869H16.9V3.041H27.413v9.238Zm1.195-9.886V1.726h4.086v.667Z" transform="translate(-11.667)"/>
</svg>
