<svg xmlns="http://www.w3.org/2000/svg" width="19.766" height="22" viewBox="0 0 19.766 22">
  <path id="Path_1873" data-name="Path 1873" d="M41.667,15.626l-2.042-.681-.733-1.466a4.706,4.706,0,0,0,1.274-2.49l.091-.548h.782a1.291,1.291,0,0,0,1.289-1.289V6.445a6.445,6.445,0,0,0-12.891,0V9.152a1.291,1.291,0,0,0,.859,1.215v.5a1.291,1.291,0,0,0,1.289,1.289h.377a4.661,4.661,0,0,0,.721,1.116c.061.07.124.138.189.2l-.733,1.466-2.042.681A6.333,6.333,0,0,0,26,21.57a.43.43,0,0,0,.43.43H45.336a.43.43,0,0,0,.43-.43A6.333,6.333,0,0,0,41.667,15.626Zm-.2-6.474a.43.43,0,0,1-.43.43h-.656c.109-.846.182-1.746.211-2.633,0-.025,0-.049,0-.074h.872Zm-10.742.43a.43.43,0,0,1-.43-.43V6.875h.872q0,.067,0,.135v0h0c.03.862.1,1.739.209,2.567h-.656Zm.859,1.719a.43.43,0,0,1-.43-.43v-.43h.352l.091.548c.017.1.039.208.064.311Zm-.429-5.285h-.844a5.586,5.586,0,0,1,11.139,0h-.844a4.352,4.352,0,0,0-4.341-4.3H35.5A4.352,4.352,0,0,0,31.157,6.016ZM35.5,2.578h.769a3.494,3.494,0,0,1,3.483,3.5c0,.135,0,.253,0,.36,0,0,0,0,0,0l-.537-.077a6.9,6.9,0,0,1-3.882-1.941.43.43,0,0,0-.3-.126,3.887,3.887,0,0,0-2.989,1.414A3.493,3.493,0,0,1,35.5,2.578ZM32.554,11.3a24.561,24.561,0,0,1-.516-4.17l.578-.771a3.024,3.024,0,0,1,2.236-1.2,7.772,7.772,0,0,0,4.234,2.053l.633.09c-.042.9-.129,1.8-.252,2.626h0c-.039.266-.07.438-.15.916a3.65,3.65,0,0,1-2.59,2.935,3.381,3.381,0,0,1-3.8-1.623h.876a1.291,1.291,0,0,0,1.215.859h.859a1.289,1.289,0,0,0,0-2.578h-.859a1.29,1.29,0,0,0-1.216.859Zm2.433,3.352a4.31,4.31,0,0,0,1.6.036l-.759.8Zm.248,1.464-1.363,1.441a16.372,16.372,0,0,1-.962-2.231l.512-1.024Zm3.035-1.959.585,1.169a16.368,16.368,0,0,1-.962,2.231L36.434,16.1ZM34.594,11.73a.43.43,0,0,1,.43-.43h.859a.43.43,0,0,1,0,.859h-.859A.43.43,0,0,1,34.594,11.73Zm-7.717,9.41a5.43,5.43,0,0,1,3.493-4.7l1.809-.6A17.225,17.225,0,0,0,33.4,18.492l0,0h0a17.229,17.229,0,0,0,1.176,1.8l.529.849Zm9.006-.383-.583-.936-.021-.031a16.384,16.384,0,0,1-.968-1.446l1.532-1.621,1.615,1.615a16.364,16.364,0,0,1-.972,1.452C36.465,19.819,36.5,19.775,35.883,20.758Zm.774.383.529-.849a17.222,17.222,0,0,0,1.184-1.81l.006-.011h0a17.211,17.211,0,0,0,1.21-2.63l1.809.6a5.43,5.43,0,0,1,3.493,4.7H36.657Z" transform="translate(-26)"/>
</svg>
