<svg xmlns="http://www.w3.org/2000/svg" width="19.287" height="16.674" viewBox="0 0 19.287 16.674">
  <defs>
    <style>
      .cls-1 {
        fill: none;
        stroke: #000;
      }
    </style>
  </defs>
  <path id="Icon_ionic-ios-speedometer" data-name="Icon ionic-ios-speedometer" class="cls-1" d="M11.393,4.5A9.14,9.14,0,0,0,4.548,19.7c.045.049.086.1.131.143a1.028,1.028,0,0,0,1.514,0,7.067,7.067,0,0,1,10.4,0,1.028,1.028,0,0,0,1.514,0l.131-.143A9.14,9.14,0,0,0,11.393,4.5Zm-.571,1.874a.571.571,0,1,1,1.143,0V7.843a.571.571,0,1,1-1.143,0ZM5.6,14.211H4.128a.571.571,0,0,1,0-1.143H5.6a.571.571,0,0,1,0,1.143ZM7.7,9.945h0a.577.577,0,0,1-.808,0L5.85,8.908a.577.577,0,0,1,0-.808h0a.577.577,0,0,1,.808,0L7.7,9.141A.572.572,0,0,1,7.7,9.945Zm6.556,1.408-1.939,3.082a1.265,1.265,0,0,1-.286.286,1.229,1.229,0,0,1-1.429-2l3.082-1.939a.418.418,0,0,1,.478,0A.41.41,0,0,1,14.255,11.353ZM15.9,9.945a.577.577,0,0,1-.808,0h0a.577.577,0,0,1,0-.808L16.128,8.1a.577.577,0,0,1,.808,0h0a.577.577,0,0,1,0,.808Zm2.763,4.266H17.19a.571.571,0,0,1,0-1.143h1.469a.571.571,0,0,1,0,1.143Z" transform="translate(-1.75 -4)"/>
</svg>
